HIERARCHY
ROOT Hips
{
	OFFSET 0.000000 0.000000 0.000000
	CHANNELS 6 Xposition Yposition Zposition Zrotation Yrotation Xrotation 
	JOINT LeftUpLeg_virtual
	{
		OFFSET 0.000000 0.000000 0.000000
		CHANNELS 3 Zrotation Yrotation Xrotation
		JOINT LeftUpLeg
		{
			OFFSET 10.205400 -3.823500 0.155100
			CHANNELS 3 Zrotation Yrotation Xrotation
			JOINT LeftLeg
			{
				OFFSET 0.708757 -12.982077 0.567790
				CHANNELS 3 Zrotation Yrotation Xrotation
				JOINT LeftFoot
				{
					OFFSET -0.708756 -10.717838 -2.184338
					CHANNELS 3 Zrotation Yrotation Xrotation
					JOINT LeftToeBase
					{
						OFFSET 0.108149 -7.191104 7.560241
						CHANNELS 3 Zrotation Yrotation Xrotation
						End Site
						{
							OFFSET 0.000000 0.000000 0.000000
						}
					}
				}
			}
		}
	}
	JOINT RightUpLeg_virtual
	{
		OFFSET 0.000000 0.000000 0.000000
		CHANNELS 3 Zrotation Yrotation Xrotation
		JOINT RightUpLeg
		{
			OFFSET -10.205400 -3.823500 0.005500
			CHANNELS 3 Zrotation Yrotation Xrotation
			JOINT RightLeg
			{
				OFFSET -0.708756 -12.982134 0.610632
				CHANNELS 3 Zrotation Yrotation Xrotation
				JOINT RightFoot
				{
					OFFSET 0.708754 -10.717769 -1.945823
					CHANNELS 3 Zrotation Yrotation Xrotation
					JOINT RightToeBase
					{
						OFFSET -0.108140 -7.191069 7.372968
						CHANNELS 3 Zrotation Yrotation Xrotation
						End Site
						{
							OFFSET 0.000000 0.000000 0.000000
						}
					}
				}
			}
		}
	}
	JOINT Spine_virtual
	{
		OFFSET 0.000000 0.000000 0.000000
		CHANNELS 3 Zrotation Yrotation Xrotation
		JOINT Spine
		{
			OFFSET 0.000000 6.876099 0.125700
			CHANNELS 3 Zrotation Yrotation Xrotation
			JOINT Spine1
			{
				OFFSET 0.000000 8.022060 0.146608
				CHANNELS 3 Zrotation Yrotation Xrotation
				JOINT Spine2
				{
					OFFSET 0.000000 9.168068 0.167552
					CHANNELS 3 Zrotation Yrotation Xrotation
					JOINT Neck_virtual
					{
						OFFSET 0.000000 0.000000 0.000000
						CHANNELS 3 Zrotation Yrotation Xrotation
						JOINT Neck
						{
							OFFSET 0.000000 10.314075 0.188496
							CHANNELS 3 Zrotation Yrotation Xrotation
							JOINT Head
							{
								OFFSET 0.000000 7.643700 -2.377400
								CHANNELS 3 Zrotation Yrotation Xrotation
								End Site
								{
									OFFSET 0.000000 0.000000 0.000000
								}
							}
						}
					}
					JOINT LeftShoulder_virtual
					{
						OFFSET 0.000000 0.000000 0.000000
						CHANNELS 3 Zrotation Yrotation Xrotation
						JOINT LeftShoulder
						{
							OFFSET 4.392200 8.824978 0.174984
							CHANNELS 3 Zrotation Yrotation Xrotation
							JOINT LeftArm
							{
								OFFSET 8.771219 -2.981674 -0.026999
								CHANNELS 3 Zrotation Yrotation Xrotation
								JOINT LeftForeArm
								{
									OFFSET 8.512804 0.000000 -0.000000
									CHANNELS 3 Zrotation Yrotation Xrotation
									JOINT LeftHand
									{
										OFFSET 18.484802 0.000000 -0.000000
										CHANNELS 3 Zrotation Yrotation Xrotation
										End Site
										{
											OFFSET 0.000000 0.000000 0.000000
										}
									}
								}
							}
						}
					}
					JOINT RightShoulder_virtual
					{
						OFFSET 0.000000 0.000000 0.000000
						CHANNELS 3 Zrotation Yrotation Xrotation
						JOINT RightShoulder
						{
							OFFSET -4.392200 8.824993 0.141379
							CHANNELS 3 Zrotation Yrotation Xrotation
							JOINT RightArm
							{
								OFFSET -8.771282 -2.981682 -0.094208
								CHANNELS 3 Zrotation Yrotation Xrotation
								JOINT RightForeArm
								{
									OFFSET -8.494598 0.000000 0.000000
									CHANNELS 3 Zrotation Yrotation Xrotation
									JOINT RightHand
									{
										OFFSET -18.483803 0.000000 0.000001
										CHANNELS 3 Zrotation Yrotation Xrotation
										End Site
										{
											OFFSET 0.000000 0.000000 0.000000
										}
									}
								}
							}
						}
					}
				}
			}
		}
	}
}
MOTION
Frames: 4
Frame Time: 0.033333
32.813168 36.531258 -9.220783 -179.886556 2.553662 179.939804 -2.694902 -0.029756 8.836876 -3.859075 -7.112720 -18.802785 11.629595 10.411556 12.120459 -9.503775 1.365733 16.310565 0.000000 0.000000 0.000000 2.295758 1.949497 7.810179 0.335206 1.007334 -1.910181 -9.927178 -1.947851 7.077140 11.603210 10.149154 6.591924 0.000000 0.000000 0.000000 1.955861 2.626385 -0.559782 -5.541069 0.429342 -8.367363 0.196851 -4.542763 2.365130 0.001376 0.007306 -0.006197 -0.302565 -2.740927 5.075207 -0.947722 2.142547 -0.110453 0.000000 0.000000 0.000000 1.070121 -1.757817 2.235554 4.404704 -1.270901 -8.411879 -12.244385 20.130272 -22.346531 -6.933188 -28.710512 -4.274745 0.000000 0.000000 0.000000 -2.431962 -1.048540 1.804301 2.886833 -3.839010 -13.021235 29.575166 -38.377617 -30.335626 -1.523272 32.753834 -7.832499 0.000000 0.000000 0.000000 
32.805473 36.529686 -9.209520 -179.873428 2.505401 179.950281 -2.765030 0.123304 8.804429 -3.801402 -7.014739 -18.944438 11.493103 10.665419 12.031119 -9.442376 1.363360 16.617225 0.000000 0.000000 0.000000 2.305876 2.010471 7.901881 0.340035 1.171879 -1.925689 -9.877233 -1.605025 6.908280 11.827516 10.304575 6.299040 0.000000 0.000000 0.000000 1.912596 2.675327 -0.459262 -5.524437 0.435756 -8.388559 0.201116 -4.552185 2.339398 -0.000364 -0.000419 -0.010293 -0.307101 -2.718442 5.071867 -0.917032 2.104225 -0.066154 0.000000 0.000000 0.000000 1.068311 -1.751423 2.253834 4.418874 -1.333916 -8.437796 -12.253078 20.195203 -22.421018 -6.969424 -28.731515 -4.280446 0.000000 0.000000 0.000000 -2.434590 -1.042338 1.793716 2.971763 -3.796140 -13.004885 29.442169 -38.297335 -30.095637 -1.503052 32.774851 -7.813850 0.000000 0.000000 0.000000 
32.796463 36.529617 -9.207994 -179.880873 2.455350 179.907401 -2.798843 0.185840 8.882471 -3.754350 -7.108014 -19.047065 11.487224 10.698894 12.043660 -9.460430 1.363929 16.634424 0.000000 0.000000 0.000000 2.295939 2.037296 8.014161 0.328628 1.114568 -2.003715 -9.890472 -1.562216 6.871552 11.860396 10.241188 6.305585 0.000000 0.000000 0.000000 1.855800 2.701797 -0.326925 -5.500549 0.464671 -8.390239 0.207235 -4.545954 2.366831 0.000298 -0.009587 -0.051487 -0.297699 -2.657196 5.055363 -0.800739 2.072470 -0.002631 0.000000 0.000000 0.000000 1.061792 -1.726547 2.229927 4.502261 -1.467040 -8.392871 -12.234152 20.302157 -22.352883 -6.908516 -28.844524 -4.129201 0.000000 0.000000 0.000000 -2.426868 -1.036768 1.820074 3.079729 -3.730967 -13.155878 29.185306 -38.232209 -29.774611 -1.406536 32.816498 -7.705305 0.000000 0.000000 0.000000 
32.790535 36.533096 -9.216320 -179.886446 2.480963 179.998175 -2.828797 0.247491 8.932558 -3.699949 -7.205297 -19.172131 11.533406 10.726159 12.029210 -9.449084 1.403658 16.705898 0.000000 0.000000 0.000000 2.303036 2.153815 8.069431 0.345585 1.114183 -2.126337 -9.907247 -1.538188 6.870242 11.868810 10.146289 6.310000 0.000000 0.000000 0.000000 1.780177 2.716448 -0.303697 -5.456275 0.518514 -8.452867 0.224977 -4.523233 2.301720 0.006614 -0.006992 -0.022557 -0.295957 -2.646605 5.054876 -0.652177 2.016160 0.132471 0.000000 0.000000 0.000000 1.077533 -1.662968 2.224645 4.601539 -1.645889 -8.396358 -12.182904 20.449742 -22.484394 -6.918232 -29.005730 -4.091303 0.000000 0.000000 0.000000 -2.431809 -0.975727 1.810016 3.207640 -3.653774 -13.045541 29.022987 -38.220465 -29.606906 -1.352741 32.848302 -7.674355 0.000000 0.000000 0.000000 
